<svg xmlns:svg="http://www.w3.org/2000/svg" xmlns="http://www.w3.org/2000/svg" xmlns:xlink="http://www.w3.org/1999/xlink" version="1.1" x="0px" y="0px" viewBox="0 0 623.8 497.1" style="enable-background:new 0 0 623.8 497.1;" xml:space="preserve">
<style type="text/css">
	.st0{fill:#fff;}
</style>
<g>
	<path class="st0" d="M312,102.1c82.5,0.2,164.8,31.7,227.7,94.6c14.7,14.7,27.6,30.4,38.9,46.9c-14-35.7-35.4-69.2-64.3-98   c-55.9-55.9-129.1-83.9-202.4-84.1c-73.3,0.2-146.5,28.2-202.4,84.1c-28.9,28.9-50.3,62.3-64.3,98c11.3-16.5,24.2-32.3,38.9-46.9   C147.1,133.8,229.5,102.3,312,102.1L312,102.1z"/>
	<path class="st0" d="M312,183.1c64.1,0.2,128.1,24.7,176.9,73.6c9.2,9.2,17.6,19,25.1,29.2c-10.4-29.3-27-56.9-50.5-80.3   c-41.9-41.9-96.7-62.9-151.6-63.1c-54.9,0.2-109.7,21.2-151.6,63.1c-23.4,23.4-40.1,51-50.5,80.3c7.5-10.2,15.9-20,25.1-29.2   C183.8,207.8,247.9,183.3,312,183.1L312,183.1z"/>
	<polygon class="st0" points="349.1,344.7 274.8,344.7 311.9,223.4 349.1,344.7  "/>
</g>
</svg>
